<?xml version="1.0" standalone="no"?>
<!DOCTYPE svg PUBLIC "-//W3C//DTD SVG 20010904//EN"
 "http://www.w3.org/TR/2001/REC-SVG-20010904/DTD/svg10.dtd">
<svg version="1.0" xmlns="http://www.w3.org/2000/svg"
 width="698.000000pt" height="274.000000pt" viewBox="0 0 698.000000 274.000000"
 preserveAspectRatio="xMidYMid meet">

<g transform="translate(0.000000,274.000000) scale(0.100000,-0.100000)"
fill="#000000" stroke="none">
<path d="M5405 2717 c-11 -8 -249 -134 -530 -282 -280 -147 -546 -287 -590
-310 -44 -23 -168 -89 -275 -145 -290 -153 -376 -198 -467 -247 -46 -24 -87
-42 -92 -39 -5 4 -139 209 -297 456 -246 384 -291 450 -311 450 -13 0 -122 -9
-241 -20 -119 -11 -624 -56 -1122 -100 -498 -44 -1027 -92 -1177 -105 -149
-14 -279 -25 -289 -25 -16 0 -15 -2 4 -16 25 -17 29 -52 7 -60 -20 -8 -19 -20
5 -44 20 -20 20 -22 3 -51 -17 -29 -17 -31 0 -43 21 -16 22 -40 1 -61 -15 -15
-15 -18 5 -36 25 -24 26 -37 4 -61 -9 -10 -14 -20 -12 -22 2 -2 59 1 125 7
111 9 121 11 117 28 -3 11 0 19 6 19 6 0 11 -7 11 -15 0 -10 10 -15 29 -15 31
0 443 35 523 45 l48 6 0 -956 0 -955 155 0 155 0 0 970 0 970 23 0 c13 0 352
29 753 65 401 36 745 65 765 65 36 0 37 -2 137 -157 55 -87 150 -237 212 -333
62 -96 147 -229 189 -294 42 -66 79 -124 83 -130 4 -6 24 2 50 19 42 28 838
590 1033 729 93 67 390 278 775 550 186 131 217 155 210 155 -3 1 -14 -5 -25
-12z m-5233 -392 c0 -5 -5 -11 -11 -13 -6 -2 -11 4 -11 13 0 9 5 15 11 13 6
-2 11 -8 11 -13z m90 -10 c0 -5 -5 -11 -11 -13 -6 -2 -11 4 -11 13 0 9 5 15
11 13 6 -2 11 -8 11 -13z m-82 -70 c0 -8 -4 -15 -10 -15 -5 0 -10 7 -10 15 0
8 5 15 10 15 6 0 10 -7 10 -15z m90 -10 c0 -8 -4 -15 -10 -15 -5 0 -10 7 -10
15 0 8 5 15 10 15 6 0 10 -7 10 -15z m-80 -71 c0 -9 -5 -14 -12 -12 -18 6 -21
28 -4 28 9 0 16 -7 16 -16z m90 -9 c0 -8 -4 -15 -9 -15 -13 0 -22 16 -14 24
11 11 23 6 23 -9z m-88 -70 c0 -5 -5 -11 -11 -13 -6 -2 -11 4 -11 13 0 9 5 15
11 13 6 -2 11 -8 11 -13z m96 -13 c2 -7 -3 -12 -12 -12 -9 0 -16 7 -16 16 0
17 22 14 28 -4z m-88 -67 c0 -8 -4 -15 -10 -15 -5 0 -10 7 -10 15 0 8 5 15 10
15 6 0 10 -7 10 -15z"/>
<path d="M5400 1095 l0 -975 150 0 150 0 0 627 c0 389 4 623 9 617 5 -5 88
-142 184 -304 376 -637 356 -605 377 -602 23 4 28 -15 6 -20 -10 -2 12 -49 77
-160 91 -155 92 -157 127 -157 29 -1 39 5 57 34 52 80 159 115 248 81 27 -11
61 -36 89 -67 26 -29 53 -49 65 -49 l21 0 0 859 c0 678 -3 861 -12 865 -10 5
-10 7 0 12 13 6 18 214 4 214 -4 0 -13 -9 -20 -20 -16 -26 -47 -25 -66 2 l-16
22 -16 -22 c-19 -27 -50 -28 -64 -2 -6 11 -15 20 -20 20 -5 0 -12 -9 -15 -20
-4 -13 -15 -20 -32 -20 -16 0 -27 7 -30 20 -3 11 -11 20 -18 20 -7 0 -15 -9
-18 -20 -3 -14 -14 -20 -32 -20 -18 0 -29 6 -32 20 -3 11 -9 20 -14 20 -4 0
-13 -9 -19 -20 -6 -11 -20 -20 -30 -20 -11 0 -25 9 -32 20 -7 11 -16 20 -20
20 -14 0 -9 -208 5 -213 9 -4 9 -7 0 -14 -10 -7 -13 -129 -15 -527 l-3 -518
-375 635 -375 636 -147 1 -148 0 0 -975z m1140 755 c0 -5 -4 -10 -10 -10 -5 0
-10 5 -10 10 0 6 5 10 10 10 6 0 10 -4 10 -10z m70 0 c0 -5 -4 -10 -10 -10 -5
0 -10 5 -10 10 0 6 5 10 10 10 6 0 10 -4 10 -10z m70 0 c0 -5 -4 -10 -10 -10
-5 0 -10 5 -10 10 0 6 5 10 10 10 6 0 10 -4 10 -10z m70 0 c0 -5 -4 -10 -10
-10 -5 0 -10 5 -10 10 0 6 5 10 10 10 6 0 10 -4 10 -10z m70 0 c0 -5 -4 -10
-10 -10 -5 0 -10 5 -10 10 0 6 5 10 10 10 6 0 10 -4 10 -10z m70 0 c0 -5 -4
-10 -10 -10 -5 0 -10 5 -10 10 0 6 5 10 10 10 6 0 10 -4 10 -10z m-280 -1401
c0 -5 -7 -9 -15 -9 -15 0 -20 12 -9 23 8 8 24 -1 24 -14z m320 0 c0 -5 -7 -9
-15 -9 -15 0 -20 12 -9 23 8 8 24 -1 24 -14z m-560 1 c0 -5 -7 -10 -15 -10 -8
0 -15 5 -15 10 0 6 7 10 15 10 8 0 15 -4 15 -10z m80 0 c0 -5 -7 -10 -15 -10
-8 0 -15 5 -15 10 0 6 7 10 15 10 8 0 15 -4 15 -10z m80 0 c0 -5 -7 -10 -15
-10 -8 0 -15 5 -15 10 0 6 7 10 15 10 8 0 15 -4 15 -10z m160 0 c0 -5 -7 -10
-15 -10 -8 0 -15 5 -15 10 0 6 7 10 15 10 8 0 15 -4 15 -10z m80 0 c0 -5 -7
-10 -15 -10 -8 0 -15 5 -15 10 0 6 7 10 15 10 8 0 15 -4 15 -10z m80 0 c0 -5
-7 -10 -15 -10 -8 0 -15 5 -15 10 0 6 7 10 15 10 8 0 15 -4 15 -10z m-500 -90
c0 -5 -7 -10 -15 -10 -8 0 -15 5 -15 10 0 6 7 10 15 10 8 0 15 -4 15 -10z m80
0 c0 -5 -7 -10 -15 -10 -8 0 -15 5 -15 10 0 6 7 10 15 10 8 0 15 -4 15 -10z
m80 0 c0 -5 -7 -10 -15 -10 -8 0 -15 5 -15 10 0 6 7 10 15 10 8 0 15 -4 15
-10z m80 0 c0 -5 -7 -10 -15 -10 -8 0 -15 5 -15 10 0 6 7 10 15 10 8 0 15 -4
15 -10z m80 0 c0 -5 -7 -10 -15 -10 -8 0 -15 5 -15 10 0 6 7 10 15 10 8 0 15
-4 15 -10z m80 0 c0 -5 -7 -10 -15 -10 -8 0 -15 5 -15 10 0 6 7 10 15 10 8 0
15 -4 15 -10z m80 0 c0 -5 -7 -10 -15 -10 -8 0 -15 5 -15 10 0 6 7 10 15 10 8
0 15 -4 15 -10z m80 0 c0 -5 -7 -10 -15 -10 -8 0 -15 5 -15 10 0 6 7 10 15 10
8 0 15 -4 15 -10z"/>
<path d="M4510 1841 c-178 -57 -317 -190 -378 -365 -21 -58 -25 -90 -25 -176
0 -172 45 -282 163 -400 116 -117 242 -170 400 -170 95 0 162 16 250 58 97 47
212 159 258 250 112 226 66 491 -114 665 -71 68 -118 97 -209 129 -69 24 -95
28 -185 27 -70 -1 -123 -7 -160 -18z m258 -317 c47 -19 98 -68 125 -119 30
-56 30 -164 0 -220 -106 -199 -396 -171 -459 43 -35 119 26 248 140 298 42 18
148 17 194 -2z"/>
<path d="M1500 845 l0 -725 170 0 170 0 0 725 0 725 -170 0 -170 0 0 -725z"/>
<path d="M2540 1119 c-338 -198 -618 -363 -622 -367 -5 -5 152 -289 165 -298
1 -1 63 35 137 79 74 44 353 208 620 364 267 157 486 286 488 288 3 2 -154
273 -167 287 -3 4 -283 -155 -621 -353z"/>
<path d="M3550 1294 c-69 -46 -131 -90 -137 -97 -10 -10 40 -90 243 -387 141
-206 317 -465 392 -575 74 -110 143 -208 152 -219 17 -18 22 -15 151 73 74 51
134 97 134 103 0 12 -797 1187 -805 1187 -3 1 -61 -38 -130 -85z"/>
</g>
</svg>
